<?xml version="1.0" encoding="iso-8859-1"?>
<!-- Generator: Adobe Illustrator 19.0.0, SVG Export Plug-In . SVG Version: 6.00 Build 0)  -->
<svg version="1.1" id="Capa_1" xmlns="http://www.w3.org/2000/svg" xmlns:xlink="http://www.w3.org/1999/xlink" x="0px" y="0px"
	  width="50px" height="50px" viewBox="0 0 512.001 512.001" style="enable-background:new 0 0 512.001 512.001;" xml:space="preserve">
<path style="fill:#59AA33;" d="M17.105,224.522c-0.089,1.102-37.435,112.795,60.094,210.325s210.32,60.089,210.32,60.089
	s37.44-112.79-60.089-210.32S17.105,224.522,17.105,224.522z"/>
<path style="fill:#A3ED5C;" d="M284.572,284.616c-97.529,97.529-60.089,210.32-60.089,210.32s112.79,37.44,210.32-60.089
	s60.183-209.223,60.094-210.325C494.897,224.522,382.101,187.087,284.572,284.616z"/>
<path d="M504.694,222.444l-0.078-0.273c-0.802-3.318-3.262-6.042-6.57-7.139c-1.228-0.408-30.559-9.95-72.438-7.011
	c-38.553,2.704-95.542,16.96-148.108,69.525c-52.565,52.566-66.82,109.554-69.522,148.105c-2.936,41.88,6.606,71.208,7.014,72.436
	c0.994,2.996,3.345,5.346,6.34,6.34c1.065,0.354,23.253,7.574,56.434,7.574c5.087,0,10.435-0.17,16.002-0.56
	c38.551-2.703,95.539-16.958,148.105-69.522C534.881,348.909,510.522,242.775,504.694,222.444z M426.15,228.033
	c20.256-1.504,37.415,0.252,49.1,2.242c-0.499,0.343-0.977,0.729-1.42,1.172l-71.833,71.833v-72.036
	C409.901,229.718,417.952,228.642,426.15,228.033z M314.968,390.308V272.108c0-0.327-0.018-0.649-0.049-0.968
	c20.743-16.059,43.157-27.735,67.078-34.958v87.098L314.968,390.308z M227.928,427.049c3.584-51.126,25.02-96.668,63.714-135.361
	c1.103-1.102,2.212-2.187,3.326-3.262v121.438c0,0.143,0.015,0.281,0.021,0.422L230.175,475.1
	C228.23,463.629,226.536,446.914,227.928,427.049z M293.225,491.428c-20.131,1.494-37.205-0.232-48.886-2.208l31.238-31.238
	c0.034,0,0.066,0.005,0.1,0.005h115.294C361.363,477.576,328.642,488.798,293.225,491.428z M427.731,427.775
	c-3.55,3.55-7.16,6.953-10.825,10.213H295.572l58.04-58.04h111.123C455.543,395.898,443.477,412.029,427.731,427.775z
	 M474.877,359.948H373.611l114.36-114.36c0.427-0.427,0.798-0.887,1.131-1.365C493.25,268.35,495.87,312.211,474.877,359.948z"/>
<path d="M186.002,379.278V263.074c11.978,8.156,23.44,17.698,34.356,28.613c3.905,3.905,10.237,3.905,14.143,0
	c3.906-3.905,3.905-10.237,0-14.143c-52.566-52.565-109.555-66.821-148.108-69.525c-41.877-2.937-71.21,6.604-72.438,7.011
	c-3.308,1.098-5.768,3.822-6.57,7.14l-0.078,0.273C1.479,242.775-22.88,348.909,70.129,441.918
	c29.508,29.508,63.305,50.019,100.45,60.961c0.943,0.278,1.895,0.41,2.831,0.41c4.32,0,8.305-2.822,9.588-7.176
	c1.561-5.298-1.469-10.858-6.766-12.418c-33.902-9.988-64.842-28.802-91.959-55.919c-23.637-23.637-39.004-48.14-48.759-71.599
	h99.106l48.266,48.266c1.953,1.953,4.512,2.929,7.071,2.929c2.559,0,5.119-0.976,7.071-2.929c3.905-3.905,3.905-10.237,0-14.143
	L186.002,379.278z M166.003,359.278l-47.999-47.999v-78.332c16.71,3.931,32.726,9.957,47.999,18.053V359.278z M84.994,227.971
	c4.379,0.307,8.715,0.755,13.011,1.324v61.985l-60.406-60.406c-0.23-0.23-0.471-0.445-0.717-0.648
	C48.356,228.277,65.097,226.574,84.994,227.971z M28.412,336.177c-11.317-38.122-8.972-71.737-5.539-91.806
	c0.185,0.22,0.376,0.438,0.583,0.646l91.162,91.161H28.412V336.177z"/>
<path d="M188.871,449.601c-19.324-5.693-37.67-14.818-54.529-27.12c-4.462-3.256-10.717-2.278-13.973,2.183
	c-3.256,4.461-2.278,10.717,2.183,13.973c18.72,13.662,39.131,23.805,60.666,30.149c0.943,0.278,1.895,0.41,2.831,0.41
	c4.32,0,8.305-2.822,9.588-7.176C197.198,456.721,194.169,451.161,188.871,449.601z"/>
<path d="M96.133,401.805c-3.905,3.905-3.887,10.255,0.018,14.16c1.953,1.953,4.512,2.929,7.071,2.929s5.119-0.976,7.071-2.929
	c3.905-3.905,3.905-10.237,0-14.143l-0.035-0.035C106.353,397.884,100.04,397.901,96.133,401.805z"/>
<path d="M64.006,146.996h64.146c5.523,0,10-4.477,10-10s-4.477-10-10-10H74.005V83.498h37.3c5.523,0,10-4.477,10-10s-4.477-10-10-10
	h-37.3V19.999h54.147c5.523,0,10-4.477,10-10s-4.477-10-10-10H64.006c-5.523,0-10,4.477-10,10v126.997
	C54.006,142.519,58.483,146.996,64.006,146.996z"/>
<path d="M383.997,146.996c40.527,0,73.498-32.971,73.498-73.498S424.524,0,383.997,0s-73.498,32.971-73.498,73.498
	S343.47,146.996,383.997,146.996z M383.997,19.999c29.499,0,53.499,23.999,53.499,53.499s-23.999,53.499-53.499,53.499
	s-53.499-23.999-53.499-53.499S354.498,19.999,383.997,19.999z"/>
<path d="M233.706,146.962c18.821,0,37.643-7.165,51.972-21.492c3.905-3.905,3.905-10.237,0-14.143
	c-3.905-3.905-10.237-3.905-14.143,0c-20.858,20.859-54.8,20.859-75.658,0c-20.859-20.858-20.859-54.8,0-75.658
	c20.858-20.859,54.799-20.859,75.658,0c3.905,3.905,10.237,3.905,14.143,0c3.905-3.905,3.905-10.237,0-14.143
	c-28.657-28.656-75.285-28.656-103.942,0c-28.657,28.657-28.657,75.286,0,103.942C196.063,139.797,214.885,146.962,233.706,146.962z
	"/>
<path d="M246.068,180.358v28.279c0,5.523,4.477,10,10,10c5.523,0,10-4.477,10-10v-28.279c0-5.523-4.477-10-10-10
	C250.545,170.358,246.068,174.835,246.068,180.358z"/>
<path d="M279.893,232.439c1.953,1.953,4.512,2.929,7.071,2.929c2.559,0,5.119-0.977,7.071-2.929l20.39-20.39
	c3.905-3.905,3.906-10.237,0-14.142c-3.906-3.906-10.237-3.905-14.142,0l-20.39,20.39
	C275.988,222.202,275.987,228.534,279.893,232.439z"/>
<path d="M211.718,197.576c-3.906-3.906-10.237-3.904-14.142,0c-3.905,3.905-3.906,10.237,0,14.142l20.424,20.425
	c1.953,1.953,4.512,2.929,7.071,2.929c2.559,0,5.119-0.977,7.071-2.929c3.905-3.905,3.906-10.237,0-14.142L211.718,197.576z"/>
<g>
</g>
<g>
</g>
<g>
</g>
<g>
</g>
<g>
</g>
<g>
</g>
<g>
</g>
<g>
</g>
<g>
</g>
<g>
</g>
<g>
</g>
<g>
</g>
<g>
</g>
<g>
</g>
<g>
</g>
</svg>
