<svg  width="50px" height="50px" viewBox="-148 0 512 512" xmlns="http://www.w3.org/2000/svg"><path d="m77.472656 99.128906h108.554688l-54.277344-48.785156zm0 0" fill="#ff8e4b"/><path d="m69.304688 99.128906 40.300781 136h36.125l40.296875-136zm0 0" fill="#ffb954"/><path d="m112 382h28v40h-28zm0 0" fill="#b3b6c3"/><path d="m103.332031 422h48.667969v80h-48.667969zm0 0" fill="#898998"/><path d="m206 89.128906h-16.140625l-71.859375-64.585937v-14.542969c0-5.523438-4.476562-10-10-10s-10 4.476562-10 10v14.542969l-71.859375 64.585937h-16.140625c-5.523438 0-10 4.476563-10 10 0 5.519532 4.476562 10 10 10h12.507812l38.175782 128.839844c1.257812 4.246094 5.160156 7.160156 9.585937 7.160156h27.730469v126.871094h-22c-5.523438 0-10 4.476562-10 10v30h-2c-5.523438 0-10 4.476562-10 10v80c0 5.523438 4.476562 10 10 10h88c5.523438 0 10-4.476562 10-10v-80c0-5.523438-4.476562-10-10-10h-2v-30c0-5.523438-4.476562-10-10-10h-22v-126.871094h27.730469c4.425781 0 8.328125-2.914062 9.585937-7.160156l38.175782-128.839844h12.507812c5.523438 0 10-4.480468 10-10 0-5.523437-4.476562-10-10-10zm-64 402.871094h-68v-60h68zm-12-80h-44v-20h44zm-73.941406-322.871094 51.941406-46.683594 51.941406 46.683594zm82.203125 136h-20.261719v-25.128906c0-5.523438-4.476562-10-10-10s-10 4.476562-10 10v25.128906h-20.261719l-34.375-116h54.636719v22.203125c0 5.523438 4.476562 10 10 10s10-4.476562 10-10v-22.203125h54.632812zm0 0"/><path d="m108 157.128906c-2.628906 0-5.210938 1.070313-7.070312 2.929688-1.859376 1.863281-2.929688 4.429687-2.929688 7.070312 0 2.632813 1.070312 5.210938 2.929688 7.070313 1.859374 1.859375 4.441406 2.929687 7.070312 2.929687s5.210938-1.070312 7.070312-2.929687c1.859376-1.859375 2.929688-4.4375 2.929688-7.070313 0-2.640625-1.070312-5.207031-2.929688-7.070312-1.859374-1.859375-4.441406-2.929688-7.070312-2.929688zm0 0"/></svg>